<mxfile host="app.diagrams.net" agent="Mozilla/5.0 (Windows NT 10.0; Win64; x64) AppleWebKit/537.36 (KHTML, like Gecko) Chrome/138.0.0.0 Safari/537.36" version="27.1.6">
  <diagram name="第 1 页" id="Qus8NAyJIgj41sOV9kzW">
    <mxGraphModel dx="1042" dy="562" grid="1" gridSize="10" guides="1" tooltips="1" connect="1" arrows="1" fold="1" page="1" pageScale="1" pageWidth="827" pageHeight="1169" math="0" shadow="0">
      <root>
        <mxCell id="0" />
        <mxCell id="1" parent="0" />
        <mxCell id="v9wW9SlqQwhIaYmf3lm6-1" value="&lt;font style=&quot;font-size: 16px;&quot;&gt;动态分析&lt;/font&gt;" style="shape=step;perimeter=stepPerimeter;whiteSpace=wrap;html=1;fixedSize=1;" vertex="1" parent="1">
          <mxGeometry x="130" y="160" width="120" height="50" as="geometry" />
        </mxCell>
        <mxCell id="v9wW9SlqQwhIaYmf3lm6-4" value="&lt;font style=&quot;font-size: 16px;&quot;&gt;静态分析&lt;/font&gt;" style="shape=step;perimeter=stepPerimeter;whiteSpace=wrap;html=1;fixedSize=1;" vertex="1" parent="1">
          <mxGeometry x="130" y="260" width="120" height="50" as="geometry" />
        </mxCell>
        <mxCell id="v9wW9SlqQwhIaYmf3lm6-5" value="&lt;font style=&quot;font-size: 16px;&quot;&gt;软件图谱&lt;/font&gt;" style="shape=hexagon;perimeter=hexagonPerimeter2;whiteSpace=wrap;html=1;fixedSize=1;" vertex="1" parent="1">
          <mxGeometry x="420" y="200" width="120" height="80" as="geometry" />
        </mxCell>
        <mxCell id="v9wW9SlqQwhIaYmf3lm6-6" value="" style="endArrow=classic;html=1;rounded=0;exitX=1;exitY=0.5;exitDx=0;exitDy=0;entryX=0;entryY=0.5;entryDx=0;entryDy=0;" edge="1" parent="1" source="v9wW9SlqQwhIaYmf3lm6-1" target="v9wW9SlqQwhIaYmf3lm6-5">
          <mxGeometry width="50" height="50" relative="1" as="geometry">
            <mxPoint x="390" y="310" as="sourcePoint" />
            <mxPoint x="440" y="260" as="targetPoint" />
            <Array as="points">
              <mxPoint x="320" y="185" />
              <mxPoint x="340" y="240" />
            </Array>
          </mxGeometry>
        </mxCell>
        <mxCell id="v9wW9SlqQwhIaYmf3lm6-9" value="&lt;font style=&quot;font-size: 14px;&quot;&gt;缺少全面性&lt;/font&gt;" style="edgeLabel;html=1;align=center;verticalAlign=middle;resizable=0;points=[];" vertex="1" connectable="0" parent="v9wW9SlqQwhIaYmf3lm6-6">
          <mxGeometry x="-0.5345" y="1" relative="1" as="geometry">
            <mxPoint y="-14" as="offset" />
          </mxGeometry>
        </mxCell>
        <mxCell id="v9wW9SlqQwhIaYmf3lm6-8" value="" style="endArrow=none;html=1;rounded=0;exitX=1;exitY=0.5;exitDx=0;exitDy=0;" edge="1" parent="1" source="v9wW9SlqQwhIaYmf3lm6-4">
          <mxGeometry width="50" height="50" relative="1" as="geometry">
            <mxPoint x="390" y="310" as="sourcePoint" />
            <mxPoint x="340" y="240" as="targetPoint" />
            <Array as="points">
              <mxPoint x="320" y="285" />
            </Array>
          </mxGeometry>
        </mxCell>
        <mxCell id="v9wW9SlqQwhIaYmf3lm6-10" value="&lt;font style=&quot;font-size: 14px;&quot;&gt;缺少准确性&lt;/font&gt;" style="edgeLabel;html=1;align=center;verticalAlign=middle;resizable=0;points=[];" vertex="1" connectable="0" parent="1">
          <mxGeometry x="290" y="320" as="geometry">
            <mxPoint x="11" y="-20" as="offset" />
          </mxGeometry>
        </mxCell>
        <mxCell id="v9wW9SlqQwhIaYmf3lm6-11" value="" style="strokeWidth=2;html=1;shape=mxgraph.flowchart.annotation_2;align=left;labelPosition=right;pointerEvents=1;" vertex="1" parent="1">
          <mxGeometry x="540" y="190" width="130" height="100" as="geometry" />
        </mxCell>
        <mxCell id="v9wW9SlqQwhIaYmf3lm6-16" value="&lt;font style=&quot;font-size: 14px;&quot;&gt;现状&lt;/font&gt;" style="text;html=1;align=center;verticalAlign=middle;whiteSpace=wrap;rounded=0;" vertex="1" parent="1">
          <mxGeometry x="540" y="210" width="60" height="30" as="geometry" />
        </mxCell>
        <mxCell id="v9wW9SlqQwhIaYmf3lm6-17" value="&lt;font style=&quot;font-size: 16px;&quot;&gt;基于源码构建&lt;/font&gt;" style="ellipse;shape=cloud;whiteSpace=wrap;html=1;" vertex="1" parent="1">
          <mxGeometry x="670" y="150" width="200" height="85" as="geometry" />
        </mxCell>
        <mxCell id="v9wW9SlqQwhIaYmf3lm6-18" value="&lt;font style=&quot;font-size: 16px;&quot;&gt;基于二进制程序构建&lt;/font&gt;" style="ellipse;shape=cloud;whiteSpace=wrap;html=1;" vertex="1" parent="1">
          <mxGeometry x="677" y="240" width="193" height="100" as="geometry" />
        </mxCell>
        <mxCell id="v9wW9SlqQwhIaYmf3lm6-19" value="具有较为成熟的方案和工具" style="shape=note;whiteSpace=wrap;html=1;backgroundOutline=1;darkOpacity=0.05;" vertex="1" parent="1">
          <mxGeometry x="900" y="135" width="80" height="100" as="geometry" />
        </mxCell>
        <mxCell id="v9wW9SlqQwhIaYmf3lm6-21" value="暂时空白" style="shape=switch;whiteSpace=wrap;html=1;fillColor=#e51400;fontColor=#ffffff;strokeColor=#B20000;" vertex="1" parent="1">
          <mxGeometry x="880" y="240" width="140" height="100" as="geometry" />
        </mxCell>
      </root>
    </mxGraphModel>
  </diagram>
</mxfile>
